# Blender 4.0.1
# www.blender.org
mtllib Морковкины дом2v2.mtl
o Cube
v -1.000000 0.002381 1.000000
v -1.000000 3.986023 1.000000
v -1.000000 0.002381 -1.000000
v -1.000000 3.986023 -1.000000
v 1.000000 0.002381 1.000000
v 1.000000 3.986023 1.000000
v 1.000000 0.002381 -1.000000
v 1.000000 3.986023 -1.000000
v 1.000000 0.002381 0.000000
v 1.000000 3.986023 0.000000
v 1.000000 1.994202 1.000000
v -1.091153 0.002381 0.000000
v 1.091153 0.002381 -0.000000
v 1.000000 0.002381 0.000000
v 0.500000 0.002381 1.000000
v 0.500000 3.986023 1.000000
v -1.091153 0.002381 -0.500000
v 0.500000 1.994202 1.000000
v 1.000000 0.002381 -0.500000
v 1.000000 3.986023 -0.500000
v 1.000000 1.994202 -0.500000
v -0.500000 0.002381 -1.000000
v -0.500000 3.986023 -1.000000
v -0.500000 1.994202 -1.000000
v 1.000000 0.002381 0.500000
v -1.000000 0.002381 0.500000
v -1.000000 3.986023 0.500000
v 1.000000 0.002381 0.500000
v 1.000000 3.986023 0.500000
v -1.000000 1.994202 0.500000
v 1.091153 0.002381 0.500000
v -1.000000 0.002381 1.098749
v -1.000000 1.994202 1.098749
v -1.000000 3.986023 1.098749
v -0.500000 0.002381 1.098749
v 0.000000 0.002381 1.098749
v 0.500000 3.986023 1.098749
v 0.000000 3.986023 1.098749
v -0.500000 3.986023 1.098749
v 0.500000 1.994202 1.098749
v 0.500000 0.002381 1.098749
v 1.000000 3.986023 -0.500000
v 1.000000 3.986023 0.000000
v 1.000000 3.986023 0.500000
v 1.000000 3.986023 1.000000
v 1.000000 1.994202 1.000000
v 1.000000 0.002381 1.000000
v 1.000000 1.994202 -0.500000
v -0.000000 0.002381 -1.094951
v 0.500000 0.002381 -1.094951
v 1.000000 0.002381 -0.500000
v 1.091153 3.986023 -0.500000
v 1.091153 3.986023 -0.000000
v 1.091153 3.986023 0.500000
v 1.091153 3.986023 1.000000
v 1.091153 1.994202 1.000000
v 1.091153 0.002381 1.000000
v 1.091153 1.994202 -0.500000
v 1.091153 0.002381 -0.500000
v -0.500000 3.986023 -1.094951
v -0.000000 3.986023 -1.094951
v 0.500000 3.986023 -1.094951
v 1.000000 3.986023 -1.094951
v 1.000000 1.994202 -1.094951
v 1.000000 0.002381 -1.094951
v -0.500000 1.994202 -1.094951
v -0.500000 0.002381 -1.094951
v -1.091153 3.986023 0.500000
v -1.091153 3.986023 0.000000
v -1.091153 3.986023 -0.500000
v -1.091153 3.986023 -1.000000
v -1.091153 1.994202 -1.000000
v -1.091153 0.002381 -1.000000
v -1.091153 1.994202 0.500000
v -1.091153 0.002381 0.500000
vn -0.0000 1.0000 -0.0000
vn -0.0000 -1.0000 -0.0000
vn -1.0000 -0.0000 -0.0000
vn 1.0000 -0.0000 -0.0000
vn -0.0000 -0.0000 1.0000
vn -0.0000 -0.0000 -1.0000
vt 0.923414 0.011376
vt 0.987777 0.011376
vt 1.000000 0.011376
vt 1.000000 0.073776
vt 1.000000 0.136176
vt 1.000000 0.198577
vt 0.987777 0.198577
vt 0.987777 0.260977
vt 0.987777 0.272353
vt 0.923414 0.272353
vt 0.859050 0.272353
vt 0.794686 0.272353
vt 0.794686 0.260977
vt 0.730323 0.260977
vt 0.717611 0.260977
vt 0.717611 0.198577
vt 0.717611 0.136176
vt 0.717611 0.073776
vt 0.730323 0.073776
vt 0.730323 0.011376
vt 0.730323 0.000000
vt 0.794686 0.000000
vt 0.859050 0.000000
vt 0.923414 0.000000
vt 0.794686 0.289408
vt 0.794686 0.278032
vt 0.859050 0.278032
vt 0.923414 0.278032
vt 0.987777 0.278032
vt 0.987777 0.289408
vt 0.987777 0.351808
vt 1.000000 0.351808
vt 1.000000 0.414208
vt 1.000000 0.476609
vt 1.000000 0.539009
vt 0.987777 0.539009
vt 0.923414 0.539009
vt 0.923414 0.550385
vt 0.859050 0.550385
vt 0.794686 0.550385
vt 0.730323 0.550385
vt 0.730323 0.539009
vt 0.730323 0.476609
vt 0.717611 0.476609
vt 0.717611 0.414208
vt 0.717611 0.351808
vt 0.717611 0.289408
vt 0.730323 0.289408
vt 0.206833 0.434944
vt 0.455414 0.434944
vt 0.703994 0.434944
vt 0.703994 0.447167
vt 0.455414 0.447167
vt 0.206833 0.447167
vt 0.359739 0.783661
vt 0.990970 0.783661
vt 0.990970 0.865382
vt 0.990970 0.880901
vt 0.675355 0.880901
vt 0.359739 0.880901
vt 0.359739 0.865382
vt 0.206833 0.429086
vt 0.206833 0.417352
vt 0.455413 0.417352
vt 0.703994 0.417352
vt 0.703994 0.429086
vt 0.455413 0.429086
vt 0.206833 0.453025
vt 0.455414 0.453025
vt 0.703994 0.453025
vt 0.703994 0.465737
vt 0.455414 0.465737
vt 0.206833 0.465737
vt 0.990970 0.761325
vt 0.990970 0.776224
vt 0.675355 0.776224
vt 0.359739 0.776224
vt 0.359739 0.761325
vt 0.359739 0.679605
vt 0.675355 0.679605
vt 0.990970 0.679605
vt 0.990970 0.970060
vt 0.990970 0.986200
vt 0.675355 0.986200
vt 0.359739 0.986200
vt 0.359739 0.970060
vt 0.359739 0.888339
vt 0.675355 0.888339
vt 0.990970 0.888339
vt 0.193091 0.497160
vt 0.128727 0.497160
vt 0.064364 0.497160
vt 0.000000 0.497160
vt 0.000000 0.248580
vt 0.000000 0.000000
vt 0.064364 0.000000
vt 0.128727 0.000000
vt 0.193091 0.000000
vt 0.193091 0.248580
vt 0.703994 0.411494
vt 0.206833 0.411494
vt 0.206833 0.399760
vt 0.455414 0.399760
vt 0.703994 0.399760
vt 0.198949 0.385760
vt 0.711753 0.062400
vt 0.711753 0.124800
vt 0.711753 0.187201
vt 0.455351 0.187201
vt 0.198949 0.187201
vt 0.198949 0.124800
vt 0.198949 0.062400
vt 0.198949 0.000000
vt 0.455351 0.000000
vt 0.711753 0.000000
vt 0.711753 0.255280
vt 0.711753 0.317681
vt 0.711753 0.380081
vt 0.455351 0.380081
vt 0.198949 0.380081
vt 0.198949 0.317681
vt 0.198949 0.255280
vt 0.198949 0.192880
vt 0.455351 0.192880
vt 0.711753 0.192880
vt 0.128727 1.000000
vt 0.064364 1.000000
vt 0.000000 1.000000
vt 0.000000 0.751420
vt 0.000000 0.502840
vt 0.064364 0.502840
vt 0.128727 0.502840
vt 0.193091 0.502840
vt 0.193091 0.751420
vt 0.193091 1.000000
vt 0.990970 0.657268
vt 0.990970 0.672166
vt 0.675355 0.672167
vt 0.359739 0.672167
vt 0.359739 0.657268
vt 0.359739 0.575548
vt 0.675355 0.575548
vt 0.990970 0.575548
s 0
f 20/1/1 8/2/1 63/3/1 62/4/1 61/5/1 60/6/1 23/7/1 4/8/1 71/9/1 70/10/1 69/11/1 68/12/1 27/13/1 2/14/1 34/15/1 39/16/1 38/17/1 37/18/1 16/19/1 6/20/1 45/20/1 55/21/1 54/22/1 53/23/1 52/24/1 42/1/1
f 26/25/2 75/26/2 12/27/2 17/28/2 73/29/2 3/30/2 22/31/2 67/32/2 49/33/2 50/34/2 65/35/2 7/36/2 19/37/2 51/37/2 59/38/2 13/39/2 31/40/2 57/41/2 47/42/2 5/42/2 15/43/2 41/44/2 36/45/2 35/46/2 32/47/2 1/48/2
f 60/49/3 66/50/3 67/51/3 22/52/3 24/53/3 23/54/3
f 42/55/4 19/56/4 7/57/4 65/58/4 64/59/4 63/60/4 8/61/4 20/55/4
f 27/62/5 68/63/5 74/64/5 75/65/5 26/66/5 30/67/5
f 37/68/4 40/69/4 41/70/4 15/71/4 18/72/4 16/73/4
f 3/74/6 73/75/6 72/76/6 71/77/6 4/78/6 23/79/6 24/80/6 22/81/6
f 1/82/3 32/83/3 33/84/3 34/85/3 2/86/3 27/87/3 30/88/3 26/89/3
f 32/90/5 35/91/5 36/92/5 41/93/5 40/94/5 37/95/5 38/96/5 39/97/5 34/98/5 33/99/5
f 51/100/6 20/101/6 42/101/6 52/102/6 58/103/6 59/104/6
f 21/105/1 20/105/1 42/105/1 48/105/1
f 19/105/1 21/105/1 48/105/1 51/105/1
f 31/106/4 13/107/4 59/108/4 58/109/4 52/110/4 53/111/4 54/112/4 55/113/4 56/114/4 57/115/4
f 50/116/6 49/117/6 67/118/6 66/119/6 60/120/6 61/121/6 62/122/6 63/123/6 64/124/6 65/125/6
f 17/126/3 12/127/3 75/128/3 74/129/3 68/130/3 69/131/3 70/132/3 71/133/3 72/134/3 73/135/3
f 5/136/5 57/137/5 56/138/5 55/139/5 45/140/5 6/140/5 16/141/5 18/142/5 15/143/5
l 11 46
l 25 28
l 9 14
l 44 29
l 43 10
